PathFileType	4	(X/Y/Z)	/Users/visionmauri/Downloads/Videos/OAW10-top_Sports2D/OAW10-top_Sports2D_px_person00.trc
DataRate	CameraRate	NumFrames	NumMarkers	Units	OrigDataRate	OrigDataStartFrame	OrigNumFrames
25.0	25.0	12	22	m	25.0	1096	1754
Frame#	Time	Hip			RHip			RKnee			RAnkle			RBigToe			RSmallToe			RHeel			LHip			LKnee			LAnkle			LBigToe			LSmallToe			LHeel			Neck			Head			Nose			RShoulder			RElbow			RWrist			LShoulder			LElbow			LWrist			
		X1	Y1	Z1	X2	Y2	Z2	X3	Y3	Z3	X4	Y4	Z4	X5	Y5	Z5	X6	Y6	Z6	X7	Y7	Z7	X8	Y8	Z8	X9	Y9	Z9	X10	Y10	Z10	X11	Y11	Z11	X12	Y12	Z12	X13	Y13	Z13	X14	Y14	Z14	X15	Y15	Z15	X16	Y16	Z16	X17	Y17	Z17	X18	Y18	Z18	X19	Y19	Z19	X20	Y20	Z20	X21	Y21	Z21	X22	Y22	Z22
1096	43.86500855675984	519.4942667407317	570.1018254631813	0.0	539.8374867053776	573.7133606694042	0.0	533.0998418459988	644.8792439475731	0.0	530.2931127161269	712.8870073573612	0.0	533.4975149707848	712.9033715548566	0.0	544.6294791053579	716.9095769488628	0.0	528.479894303526	729.135901392821	0.0	500.0534669476209	570.2722181276353	0.0	510.1416130084694	658.3229684800506	0.0	513.1964300090453	752.431844320124	0.0	521.3844304297429	754.7489021604952	0.0	505.50114675539476	766.6278584367104	0.0	515.6346680701175	769.7753647643921	0.0	529.6603687257154	441.2273203726173	0.0	529.4110392724157	392.0253488956875	0.0	527.2232791993953	426.0693849324599	0.0	567.1467112896195	459.9952467157083	0.0	574.4091467195224	529.7725145551523	0.0	569.214498016573	590.9230805464147	0.0	487.2883668411277	452.0292581507532	0.0	467.1577127009457	508.15880660543854	0.0	462.6113082817977	546.4019824542116	0.0
1097	43.90503137478608	519.5726320922862	570.3367416056531	0.0	539.512177605146	572.764972983456	0.0	532.5150061937701	645.5517871400049	0.0	528.8521620668234	713.2357776359111	0.0	531.7625182295029	718.9675927732987	0.0	545.1631478198167	721.8744726265251	0.0	526.256548701532	730.469092600245	0.0	500.03048256608355	569.7865222375664	0.0	510.28615193384667	656.9447153249998	0.0	512.2699789560766	748.4518929611613	0.0	521.0394110910952	755.7357314276297	0.0	505.34722998461626	765.1543149782025	0.0	514.7015344939099	766.8143960338657	0.0	530.6414929763552	439.83925086980486	0.0	531.9496929310723	392.32817384797045	0.0	533.5869200126423	423.77359815251634	0.0	566.9321655867197	460.343430964519	0.0	573.6023929097101	530.1526811788285	0.0	568.6256230035091	590.8661971176626	0.0	488.5866331750362	451.88542687551654	0.0	468.311344529555	508.38358343195955	0.0	464.04811988681774	546.5585108939724	0.0
1098	43.945054192812314	519.8926517881749	568.7636901511729	0.0	540.0431518771973	570.5077890110007	0.0	532.68408116082	644.4886661860037	0.0	528.1847909159583	712.897292761382	0.0	530.1038672787942	725.3907680635278	0.0	545.693238910385	726.9779690195431	0.0	524.6124224010566	731.0147010200252	0.0	500.47831710704423	568.2075719148378	0.0	509.9632075071459	654.3687249338765	0.0	510.7009789981786	741.5181675769228	0.0	520.2834144924906	757.2455632732159	0.0	505.47167989449224	762.7575020977929	0.0	511.9305609183436	761.0176980972129	0.0	531.0139207221965	439.11735102139784	0.0	532.2376214805636	391.6392058034805	0.0	536.7919888017468	421.8339193396762	0.0	566.1517677009525	459.2200666373398	0.0	573.4887068148066	528.379475080143	0.0	569.1706371748875	589.7162628915949	0.0	489.47068355209416	451.102925256346	0.0	468.927401143248	507.85847136973035	0.0	464.9620754932315	547.4570773647557	0.0
1099	43.98507701083856	520.1546600329684	565.2376274660628	0.0	540.3175237022941	567.7205656576324	0.0	532.5559147568011	642.2631968798601	0.0	527.9107592867539	712.1896875947145	0.0	528.7065356571801	729.8078705787991	0.0	544.1480173343026	730.6992864029336	0.0	523.9840295102088	730.8930405595279	0.0	501.13958303363955	565.5422504629189	0.0	508.9088685595887	649.9273390068504	0.0	508.3436971731815	730.1002803622239	0.0	519.1046223581149	758.5923355430883	0.0	505.01270530328094	760.29322733388	0.0	508.24546785647647	750.2690940378836	0.0	530.2490919377196	439.7337643771368	0.0	530.243267067981	391.0964197282481	0.0	534.3814929819152	419.2643914172615	0.0	565.1752850410406	457.4022242558858	0.0	573.5206674318921	525.5027217796212	0.0	569.9573248438672	587.3189918014922	0.0	489.31517751098596	449.9810247760778	0.0	469.2442246755025	506.3482539470795	0.0	465.1855162306384	548.1563511100137	0.0
1100	44.025099828864796	520.4489282475959	561.241601034017	0.0	540.343802309472	564.4481143757001	0.0	532.2415252556842	640.2116328848333	0.0	527.5413837972449	711.8456251090089	0.0	527.1812064892925	733.5537322343467	0.0	541.8197573760752	733.9228625251501	0.0	524.1914568843713	730.9682407083623	0.0	501.7718082777161	562.2357807589063	0.0	506.6437931057984	643.8029351842963	0.0	505.41787312178764	714.7025018401645	0.0	518.0122182107685	758.1883908062083	0.0	503.29101720354356	757.3260806460805	0.0	504.79229609619387	734.751704367366	0.0	528.6867120626102	440.2612182835659	0.0	527.1796794077969	391.8024323831726	0.0	528.836280888616	418.8863977176656	0.0	564.8967838222381	454.95936090903245	0.0	573.7477736621056	522.1505820791972	0.0	570.7449932889936	583.4757543070693	0.0	488.8377311923262	448.0062235428165	0.0	469.7543087741421	504.30560983275274	0.0	465.10767700198613	549.4828642864985	0.0
1101	44.06512264689104	520.9604325420427	557.5370099063804	0.0	540.7556296325213	560.1220634405136	0.0	532.200000519872	638.6115839924473	0.0	527.2627221683385	712.5515209554289	0.0	525.8615454432593	735.5135694906896	0.0	540.8669453607147	735.7272499242157	0.0	524.4392998954872	731.2751530368229	0.0	502.1961876682204	558.2257509060607	0.0	503.70981927270407	637.9429305890183	0.0	502.52493662244814	702.0621528442599	0.0	517.082025792719	753.7044820495721	0.0	500.60424679309995	752.0313291831355	0.0	502.1177923754394	720.9220933506381	0.0	527.7446706154665	438.2893645263983	0.0	526.449807611007	390.6085984517643	0.0	526.7495171031626	420.48558394449856	0.0	565.3484017563358	451.58312125950215	0.0	574.4631228109788	517.9893126706671	0.0	571.6264887721244	578.3791884576375	0.0	488.7486472631847	444.48657630960025	0.0	470.6359057064954	502.2465100925161	0.0	465.0630863317349	551.5394962071769	0.0
1102	44.10514546491728	521.2026370551642	553.666209769268	0.0	541.1105288548039	555.3397684561612	0.0	532.2378738472428	637.0577113407504	0.0	527.1798898479186	714.3585577586231	0.0	525.1723656734409	733.7588865124766	0.0	541.1394604388528	734.9697609594054	0.0	524.2225984753086	731.4985486631624	0.0	502.088555046906	553.8609143961453	0.0	501.4386976324908	634.0262195749939	0.0	500.42884788184875	697.7207421693598	0.0	515.0672521809627	744.6771824087035	0.0	497.5050128345721	743.5652402812941	0.0	500.3951490337286	715.0915628783488	0.0	527.6433745064553	434.1099923980263	0.0	528.0261226738703	385.7287856963698	0.0	528.7874122810804	417.97242027922545	0.0	565.4572962097938	447.536565140886	0.0	575.2055165678172	513.0702827524535	0.0	572.5798128193022	572.1290099429742	0.0	488.7802373356521	440.6640030293711	0.0	471.49229999399654	500.50798907576836	0.0	465.0951288467516	553.4795576780167	0.0
1103	44.14516828294352	520.7390923084953	549.8642576679509	0.0	540.8271885267552	551.5913403055742	0.0	531.9695445625237	634.9146403753349	0.0	526.9943528731645	715.7770865181503	0.0	524.625426959464	729.7438826617006	0.0	541.2572229614738	732.7152983907672	0.0	523.9907588363264	731.3877561768351	0.0	501.5703496191774	550.2397299391247	0.0	500.2271022003611	630.974562377622	0.0	499.0547449254908	699.4642247942406	0.0	510.7643003715931	733.1086423203878	0.0	494.14843381634296	733.1702521028777	0.0	499.3980241277695	715.9970782059563	0.0	527.346235844999	431.06780510353457	0.0	528.0984025780028	381.5997556611226	0.0	528.9049528049638	411.9901209400385	0.0	564.6021429216295	443.8373584750335	0.0	575.5769950171962	507.9561288662196	0.0	573.6083691527555	564.9578237549011	0.0	488.7590309064761	438.6216859412458	0.0	471.8561041299254	499.3768478048499	0.0	465.1554138998061	554.6007090332743	0.0
1104	44.18519110096976	520.0634145304572	547.5787602915967	0.0	540.000770115003	549.9800964024065	0.0	531.3809740324241	632.6543477330003	0.0	526.7079467655832	715.7845768950557	0.0	523.676063400061	726.1132087219099	0.0	540.9197892049817	730.609952718141	0.0	524.1661322863353	731.036887307277	0.0	501.3795482237211	548.8099638024518	0.0	499.5360095930749	627.6192179718236	0.0	497.45615848946153	701.8421440463852	0.0	505.23870177235125	721.7853099152048	0.0	490.7114719109283	723.1054151538533	0.0	498.25637916922483	718.1707160649228	0.0	526.5363190970456	430.03718714648227	0.0	526.2706894007273	381.3414526365844	0.0	526.1889218512086	409.4206229715329	0.0	563.1758369058003	441.40985810274935	0.0	575.9843676532535	503.7368870123099	0.0	574.2685193580412	558.4516132243808	0.0	488.92791550753816	438.0960694933148	0.0	471.78753946468817	498.917448373566	0.0	465.30400782142914	554.8643016313509	0.0
1105	44.225213918996005	519.6636736068102	547.1068588083245	0.0	538.8975481546039	550.0560560298845	0.0	530.63091065051	631.526698940109	0.0	526.557278930109	715.2599362456182	0.0	522.4343965145653	724.0676366043978	0.0	540.4525279166106	729.3470495473387	0.0	524.433223220622	730.654345496056	0.0	501.5538964081276	549.1720853638087	0.0	499.2541720520775	624.6590595086527	0.0	495.4546510317913	701.1387887738285	0.0	500.5270551594439	712.1178491720057	0.0	487.7055247850001	714.3519314850529	0.0	496.5387551072035	717.1309413003161	0.0	525.5561359431159	428.77257563751044	0.0	525.2778880134966	382.5429590874504	0.0	524.7631269735044	410.97779389914905	0.0	561.8368165836636	440.4242307594336	0.0	576.5154816839629	501.459815199566	0.0	574.0941870554597	553.945336363874	0.0	489.0422529279323	437.7282471770805	0.0	471.60045815538706	498.9860288238182	0.0	465.7203049808708	554.7768083806847	0.0
1106	44.26523673702224	519.0663760923405	546.8264695041042	0.0	537.7694190072713	550.0713964591646	0.0	529.724223219405	631.2376378792729	0.0	526.5625304196793	715.1636426109329	0.0	521.8045742657469	723.8507691256157	0.0	539.7833365005691	729.0231904443694	0.0	524.5029249205783	730.3665568953738	0.0	501.0762843872883	548.9279200689433	0.0	499.4758492593556	622.3323583834897	0.0	494.2128203191438	696.5852129342582	0.0	497.3423858012187	702.6828688681029	0.0	485.54099344223795	705.4172444557283	0.0	495.32017307604946	711.490460367019	0.0	524.4876372506445	427.78911624862144	0.0	525.0458282857753	382.8635419332492	0.0	524.4862011931438	413.01003698328475	0.0	560.8864524025807	440.7654313676247	0.0	576.4033810720606	500.4618483769779	0.0	573.622984504692	550.5668671025182	0.0	488.4562383556979	437.9235122339016	0.0	471.4474006822476	499.27399638658113	0.0	466.33538775592433	554.79031173242	0.0
1107	44.30525955504849	517.9955966826692	545.5983571975405	0.0	536.6708953439138	549.0999228138899	0.0	528.7296271656162	630.4020452641727	0.0	526.5730256914304	714.7520718270355	0.0	522.2306060334963	725.3775713508041	0.0	539.0836710028516	729.6949974538285	0.0	524.4501830013079	729.6644464850427	0.0	499.68359757873793	547.5519728813402	0.0	499.7413501290859	620.023304545111	0.0	494.66699786200127	690.5409005569885	0.0	496.0186734835783	693.4321412763377	0.0	484.59583884104745	696.4606566062816	0.0	495.78045303503416	704.6124749679326	0.0	523.1995335428738	428.67789157449096	0.0	523.752527169277	382.39394789954486	0.0	522.4414307890764	414.0579056439806	0.0	559.886843370267	441.91242189344956	0.0	575.1030755358267	499.0528111946669	0.0	573.5348519655278	547.0812832939714	0.0	487.0414020396332	439.1468647248274	0.0	471.4078179730961	499.2307090192465	0.0	466.6688905157556	554.8634577177156	0.0
